<?xml version="1.0" encoding="utf-8"?>
<!-- Generator: Adobe Illustrator 16.0.0, SVG Export Plug-In . SVG Version: 6.00 Build 0)  -->
<!DOCTYPE svg PUBLIC "-//W3C//DTD SVG 1.1//EN" "http://www.w3.org/Graphics/SVG/1.1/DTD/svg11.dtd">
<svg version="1.1" id="Capa_1" xmlns="http://www.w3.org/2000/svg" xmlns:xlink="http://www.w3.org/1999/xlink" x="0px" y="0px"
	 width="215.434px" height="215.434px" viewBox="0 0 215.434 215.434" enable-background="new 0 0 215.434 215.434"
	 xml:space="preserve">
<g>
	<circle fill="#54C147" cx="107.717" cy="107.717" r="106.299"/>
	<path fill="#FFFFFF" d="M112.252,45.338h24.582v84.902c0,12.161-3.729,21.85-11.193,29.061
		c-7.462,7.209-17.051,10.813-28.762,10.813c-13.01,0-23.316-3.213-30.919-9.632c-7.604-6.421-11.265-15.739-10.982-27.962
		l0.17-0.508h23.992c0,6.53,1.604,11.361,4.813,14.485c3.211,3.126,7.521,4.688,12.927,4.688c4.504,0,8.192-1.87,11.066-5.615
		c2.871-3.746,4.308-8.856,4.308-15.333L112.252,45.338L112.252,45.338z"/>
</g>
</svg>
